<svg xmlns="http://www.w3.org/2000/svg" viewBox="0 0 13.06 13.11"><title>ClubsOff</title><g id="Capa_2" data-name="Capa 2"><g id="Capa_1-2" data-name="Capa 1"><path d="M13.06,7.19A3.37,3.37,0,0,0,9.78,3.83a3.73,3.73,0,0,0,0-.47A3.37,3.37,0,0,0,6.45,0,3.37,3.37,0,0,0,3,3.28a3.57,3.57,0,0,0,.06.65A3.38,3.38,0,0,0,0,7.19a3.37,3.37,0,0,0,3.36,3.36A3.44,3.44,0,0,0,6,9.36a4.26,4.26,0,0,1-3.36,3.27l-.1,0,0,.36,7.76.1,0-.36-.09,0A4.73,4.73,0,0,1,7.13,9.37a3.52,3.52,0,0,0,2.49,1.1,3.37,3.37,0,0,0,3.44-3.28Z"/></g></g></svg>
