<svg xmlns="http://www.w3.org/2000/svg" viewBox="0 0 20 20.07"><defs><style>.cls-1{fill:#5d5c5d;}</style></defs><title>ClubsOn</title><g id="Capa_2" data-name="Capa 2"><g id="Capa_1-2" data-name="Capa 1"><path class="cls-1" d="M20,11a5.18,5.18,0,0,0-5-5.15A4.25,4.25,0,0,0,15,5.15,5.16,5.16,0,0,0,9.88,0,5.15,5.15,0,0,0,4.61,5,5.63,5.63,0,0,0,4.7,6,5.17,5.17,0,0,0,0,11a5.17,5.17,0,0,0,5.15,5.15,5.32,5.32,0,0,0,4.07-1.82,6.53,6.53,0,0,1-5.15,5l-.14,0,.06.55,11.89.14.07-.55-.15,0a7.31,7.31,0,0,1-4.89-5.14A5.39,5.39,0,0,0,14.73,16,5.16,5.16,0,0,0,20,11Z"/></g></g></svg>