<svg xmlns="http://www.w3.org/2000/svg" viewBox="0 0 14.75 14.75"><title>DuckOff</title><g id="Capa_2" data-name="Capa 2"><g id="Capa_1-2" data-name="Capa 1"><g id="_8RNW8S" data-name="8RNW8S"><path d="M8.46,0h.6l.33,0a3.39,3.39,0,0,1,2.44,1.59,4.9,4.9,0,0,1,.61,1.52.2.2,0,0,0,.08.12,1.9,1.9,0,0,0,.39.23,2.53,2.53,0,0,0,1,.19,2.08,2.08,0,0,1,.43,0,.42.42,0,0,1,.39.31v.18a1.62,1.62,0,0,1-.45.49,8.26,8.26,0,0,1-1.72,1,3,3,0,0,1-.92.27.31.31,0,0,0-.25.17,2.28,2.28,0,0,0-.35,1.16.86.86,0,0,0,.18.56,4.71,4.71,0,0,0,.35.41,2.84,2.84,0,0,1,.69,1.12,4.43,4.43,0,0,1,.16.87,3.3,3.3,0,0,1-.39,1.85A5.06,5.06,0,0,1,11,13.47a5.9,5.9,0,0,1-1.54,1,3.06,3.06,0,0,1-1.33.28h-2c-.36,0-.73,0-1.09-.06A5.94,5.94,0,0,1,2.69,14,5,5,0,0,1,.48,11.56a5.63,5.63,0,0,1-.47-2,5,5,0,0,1,.26-2,3.41,3.41,0,0,1,1-1.53c.08-.07.08-.07.13,0a4.27,4.27,0,0,0,1,1.39,3.34,3.34,0,0,0,1.35.72,3.66,3.66,0,0,0,1.51.05A1.85,1.85,0,0,0,6,8a.73.73,0,0,0,.43-.71,1.56,1.56,0,0,0-.24-.81c-.13-.2-.29-.39-.43-.6a5,5,0,0,1-.39-.62,3.58,3.58,0,0,1-.3-2,4,4,0,0,1,.48-1.5A3.33,3.33,0,0,1,8,.07Z"/></g></g></g></svg>
