<svg xmlns="http://www.w3.org/2000/svg" viewBox="0 0 17.63 15.67"><defs><style>.cls-1{fill:#b7b7b7;}</style></defs><title>GP</title><g id="Capa_2" data-name="Capa 2"><g id="Capa_1-2" data-name="Capa 1"><g id="oYTStp"><path class="cls-1" d="M17.63,1.26V7.41c-.13.63-.23,1.28-.4,1.9a8.8,8.8,0,0,1-9.32,6.3A8.66,8.66,0,0,1,.12,7.25c0-.5-.08-1-.12-1.52V1.26A2,2,0,0,1,2.22,0q6.6.06,13.19,0A2.06,2.06,0,0,1,17.63,1.26ZM8.82,7.89l-3.19-3a1.25,1.25,0,0,0-1.86,0,1.22,1.22,0,0,0,.11,1.85q2,1.95,4,3.87a1.17,1.17,0,0,0,1.79,0c1.4-1.31,2.78-2.62,4.12-4a1.52,1.52,0,0,0,.37-1.11,1.23,1.23,0,0,0-2.13-.67C11,5.79,9.94,6.82,8.82,7.89Z"/></g></g></g></svg>