<svg xmlns="http://www.w3.org/2000/svg" viewBox="0 0 20 18.63"><defs><style>.cls-1{fill:#5d5c5d;}</style></defs><title>HeartsOn</title><g id="Capa_2" data-name="Capa 2"><g id="Capa_1-2" data-name="Capa 1"><path class="cls-1" d="M14.67.19a5.71,5.71,0,0,0-4.62,2.57A5.53,5.53,0,0,0,5.51,0C2.84,0,.09,2.28,0,6.77c-.08,4.29,3.64,6.93,5.64,8.36C7.17,16.21,8.9,17.45,9.05,18a.87.87,0,0,0,.83.64h0a.86.86,0,0,0,.83-.65,11.25,11.25,0,0,1,2.55-2.14l.94-.68.31-.23C16.69,13.35,20,11,20,7,20,2.36,17.26.22,14.67.19Z"/></g></g></svg>