<svg xmlns="http://www.w3.org/2000/svg" viewBox="0 0 11.48 13.11"><defs></defs><title>SpadesOff</title><g id="Capa_2" data-name="Capa 2"><g id="Capa_1-2" data-name="Capa 1"><path class="cls-1" d="M11.48,6.88c0-1.87-1.36-2.81-2.59-3.63h0c-.27-.18-.52-.35-.74-.52A7,7,0,0,1,6,.15.2.2,0,0,0,5.82,0a.23.23,0,0,0-.19.14A6.12,6.12,0,0,1,3.46,2.63L2.82,3C1.57,3.81,0,4.77,0,6.72c0,2.41,1.44,3.53,2.8,3.55A3.14,3.14,0,0,0,5.19,9.1a4.47,4.47,0,0,1-3.52,3.52.2.2,0,0,0-.15.22.19.19,0,0,0,.19.17l7.9.1a.2.2,0,0,0,.2-.2.19.19,0,0,0-.15-.19,5.41,5.41,0,0,1-3.3-3.54,3.21,3.21,0,0,0,2.28,1.07c1.38,0,2.79-1,2.84-3.37Z"/></g></g></svg>
