<svg xmlns="http://www.w3.org/2000/svg" viewBox="0 0 17.63 15.42"><defs><style>.cls-1{fill:#b7b7b7;}</style></defs><title>Vi</title><g id="Capa_2" data-name="Capa 2"><g id="Capa_1-2" data-name="Capa 1"><path class="cls-1" d="M17.14,1.15A2.63,2.63,0,0,0,15.1,0h0A5.27,5.27,0,0,0,12,1,5.46,5.46,0,0,0,10.3,3a.76.76,0,0,0,0,.73.75.75,0,0,0,.66.33,1.29,1.29,0,0,1,1.16.39,1.17,1.17,0,0,1,.22.63,1.6,1.6,0,0,1-.12.68l0,.07h0c-1.29,3.27-2.17,4-2.68,4H9.48c-.09,0-.59-.33-1.14-2.48A32.79,32.79,0,0,1,7.67,3.5h0a8.14,8.14,0,0,0-.28-1.28A2.52,2.52,0,0,0,4.18.57L3.87.71a18.09,18.09,0,0,0-3.65,3,.75.75,0,0,0,0,1,.74.74,0,0,0,1,.11,1.44,1.44,0,0,1,.85-.38.73.73,0,0,1,.63.4v0a26.8,26.8,0,0,1,1.69,5h0a12.23,12.23,0,0,0,2,4.74,1.93,1.93,0,0,0,1.37.86h.07c3.86-.49,7.44-6.3,8.8-8.77a8.25,8.25,0,0,0,.87-2.28A4.12,4.12,0,0,0,17.14,1.15Z"/></g></g></svg>