<svg xmlns="http://www.w3.org/2000/svg" viewBox="0 0 23.6 15"><defs><style>.cls-1{fill:#b7b7b7;}</style></defs><title>Be</title><g id="Capa_2" data-name="Capa 2"><g id="Capa_1-2" data-name="Capa 1"><g id="NkPa3y"><path class="cls-1" d="M0,0H2.36C4.2,0,6.05,0,7.9,0a3.67,3.67,0,0,1,3.75,4.49A2.58,2.58,0,0,1,9.79,6.65a2.47,2.47,0,0,1,2.15,1.94,9.09,9.09,0,0,1,.11,2.94A3.92,3.92,0,0,1,8,14.61c-2.64.05-5.29,0-8,0ZM3.34,12c1.49,0,2.94.06,4.38,0,.93,0,1.41-.78,1.4-1.88s-.5-1.92-1.34-2c-1.47-.06-2.94,0-4.44,0Zm0-6.15h3.9a1.19,1.19,0,0,0,1.31-1A2,2,0,0,0,8,2.74a.68.68,0,0,0-.35-.13H3.33Z"/><path class="cls-1" d="M23.6,10.11H16a2.16,2.16,0,0,0,1.75,2.46A2.54,2.54,0,0,0,21,11.13h2.44a3.27,3.27,0,0,1-2.15,3.31,7.06,7.06,0,0,1-5.54,0c-2.16-.93-2.89-2.8-2.9-5,0-2.83,1.65-5.08,4.2-5.52A8.08,8.08,0,0,1,20.34,4c1.94.49,2.8,2,3.12,3.91C23.57,8.62,23.55,9.32,23.6,10.11Zm-2.88-2c-.17-1.64-1-2.35-2.55-2.22a2.27,2.27,0,0,0-2.12,2.22Z"/><path class="cls-1" d="M21.31.93V2.58H15.36V.93Z"/></g></g></g></svg>