<svg xmlns="http://www.w3.org/2000/svg" viewBox="0 0 20 20.01"><defs><style>.cls-1{fill:#5d5c5d;}</style></defs><title>DuckOn</title><g id="Capa_2" data-name="Capa 2"><g id="Capa_1-2" data-name="Capa 1"><g id="_8RNW8S" data-name="8RNW8S"><path class="cls-1" d="M11.47,0h.82l.44.06A4.54,4.54,0,0,1,16,2.21a6,6,0,0,1,.83,2.06.39.39,0,0,0,.11.17,3.6,3.6,0,0,0,.54.31A3.37,3.37,0,0,0,18.88,5a3.81,3.81,0,0,1,.59,0,.58.58,0,0,1,.53.43V5.7a2,2,0,0,1-.61.67,11.13,11.13,0,0,1-2.33,1.37,4.19,4.19,0,0,1-1.25.37.44.44,0,0,0-.34.22A3,3,0,0,0,15,9.92a1.14,1.14,0,0,0,.23.76c.15.19.32.37.48.55a3.84,3.84,0,0,1,.95,1.52,5.2,5.2,0,0,1,.2,1.18,4.42,4.42,0,0,1-.52,2.5,6.74,6.74,0,0,1-1.47,1.84,7.72,7.72,0,0,1-2.09,1.35A4.1,4.1,0,0,1,11,20c-.92,0-1.83,0-2.75,0-.49,0-1,0-1.47-.08a8.16,8.16,0,0,1-3.12-1,6.79,6.79,0,0,1-3-3.29A7.45,7.45,0,0,1,0,13a6.66,6.66,0,0,1,.34-2.7,4.75,4.75,0,0,1,1.4-2.09c.11-.09.12-.09.18,0a5.71,5.71,0,0,0,1.4,1.87,4.38,4.38,0,0,0,1.82,1,5.29,5.29,0,0,0,2.06.07,2.72,2.72,0,0,0,1-.31,1,1,0,0,0,.58-1,2.11,2.11,0,0,0-.33-1.09C8.24,8.54,8,8.28,7.84,8a5.65,5.65,0,0,1-.53-.84,4.82,4.82,0,0,1-.4-2.7,5,5,0,0,1,.65-2A4.46,4.46,0,0,1,10.78.1C11,.05,11.24,0,11.47,0Z"/></g></g></g></svg>