<svg xmlns="http://www.w3.org/2000/svg" viewBox="0 0 20 22.84"><defs><style>.cls-1{fill:#5d5c5d;}</style></defs><title>SpadesOn</title><g id="Capa_2" data-name="Capa 2"><g id="Capa_1-2" data-name="Capa 1"><path class="cls-1" d="M20,12c.06-3.28-2.37-4.9-4.51-6.34h0c-.47-.32-.91-.61-1.3-.91A12.17,12.17,0,0,1,10.49.27.36.36,0,0,0,10.14,0a.35.35,0,0,0-.32.25A10.84,10.84,0,0,1,6,4.59c-.33.23-.69.45-1.11.7C2.73,6.64,0,8.31,0,11.71c0,4.21,2.51,6.15,4.88,6.18a5.45,5.45,0,0,0,4.16-2A7.79,7.79,0,0,1,2.9,22a.36.36,0,0,0-.26.38.35.35,0,0,0,.35.3l13.76.17a.35.35,0,0,0,.35-.34.34.34,0,0,0-.26-.34A9.36,9.36,0,0,1,11.09,16a5.55,5.55,0,0,0,4,1.86c2.41,0,4.86-1.77,4.94-5.86Z"/></g></g></svg>