<svg xmlns="http://www.w3.org/2000/svg" viewBox="0 0 69.14 40.42"><defs><style>.cls-1{fill:#ef7a06;}</style></defs><title>LeoIcon</title><g id="Capa_2" data-name="Capa 2"><g id="Capa_1-2" data-name="Capa 1"><path class="cls-1" d="M68.8,14.07a8,8,0,0,0-4.49-5.64,7.2,7.2,0,0,0-2.84-.57c-3.41,0-6.83,2.28-8.94,5.83C49,11.49,45.06,7.51,40.77,1.82A3.38,3.38,0,0,0,38.59.06c-1.2-.25-2.52.29-3.92,1.6a.77.77,0,1,0,1.06,1.12c1-.93,1.86-1.35,2.54-1.22a1.9,1.9,0,0,1,1.14,1,.38.38,0,0,0,.09.15c4.48,6,8.6,10.08,12.31,12.39l-.15.32a14.08,14.08,0,0,0-1.15,5.05.8.8,0,0,0-.1.23,37.17,37.17,0,0,0-.65,6.23c-.24,4.74-.6,9.74-5.9,11.41-3.21,1-5.9.08-8.75-1.46,1.23.67,4.48-1.6,5.35-2.31a13.77,13.77,0,0,0,3.85-5.21c2.48-5.77.84-12-3.66-14a7.25,7.25,0,0,0-2.84-.58c-3.94,0-7.88,3-9.81,7.53-.09.21-.17.42-.24.64h0c-1,1.12-1.81,2.15-2.53,3.06-1.62,2-2.64,3.39-3.81,3.39-2.38,0-6.87-5.85-16-17.92a3.25,3.25,0,0,0-2.16-1.37,3.73,3.73,0,0,0-3,1.16.76.76,0,0,0,0,1.08.77.77,0,0,0,1.08.06,2.32,2.32,0,0,1,1.77-.78,1.77,1.77,0,0,1,1.12.73C14.56,26.15,18.31,30.92,21.38,31h0c1.85,0,3.1-1.58,5-4l.53-.67a12,12,0,0,0,.42,4.94.32.32,0,0,1,0,.09l.12.34a2.44,2.44,0,0,0,.1.24c1.68,4.21,6.53,7.69,11,8.34a12.57,12.57,0,0,0,6.75-.79A8.84,8.84,0,0,0,50.23,35c1-2.48.93-5.42,1.07-8,0-.57.05-1.14.09-1.69a7.57,7.57,0,0,0,3.94,4.06,7.18,7.18,0,0,0,2.84.58c3.93,0,7.87-3,9.81-7.53A13.26,13.26,0,0,0,68.8,14.07ZM32.27,34.88A5.73,5.73,0,0,1,30.91,34a8.06,8.06,0,0,1-2.07-3.22l-.06-.14a11.5,11.5,0,0,1,.62-7.75c1.7-3.95,5.08-6.6,8.41-6.6a5.62,5.62,0,0,1,2.23.45c3.72,1.6,5,7,2.86,12-1.69,3.94-5.07,6.6-8.4,6.6A5.62,5.62,0,0,1,32.27,34.88ZM61.47,9.39a5.59,5.59,0,0,1,2.23.45,5.82,5.82,0,0,1,1.31.8c-.74,1.45-2.6,4.71-6.13,5a9.35,9.35,0,0,1-5-1.23C55.69,11.37,58.6,9.39,61.47,9.39Zm5.1,12.4c-1.7,3.95-5.08,6.6-8.4,6.6a5.64,5.64,0,0,1-2.24-.45,6.52,6.52,0,0,1-3.6-4.6A11.62,11.62,0,0,1,53.07,16c0-.05,0-.1.07-.16a11.28,11.28,0,0,0,5.15,1.41,6,6,0,0,0,.73,0c4-.36,6.11-3.55,7.1-5.37a7.59,7.59,0,0,1,1.19,2.62A11.66,11.66,0,0,1,66.57,21.79Z"/></g></g></svg>